<?xml version="1.0" standalone="no"?><!DOCTYPE svg PUBLIC "-//W3C//DTD SVG 1.1//EN" "http://www.w3.org/Graphics/SVG/1.1/DTD/svg11.dtd"><svg t="1708235433165" class="icon" viewBox="0 0 1024 1024" version="1.1" xmlns="http://www.w3.org/2000/svg" p-id="6322" xmlns:xlink="http://www.w3.org/1999/xlink" width="200" height="200"><path d="M894.5 861.4H807L667.4 323.9c0-16.4-13.3-29.6-29.7-29.6H526.2V172.5c0-18.4-14.9-33.3-33.3-33.3H351.7c-18.4 0-33.3 14.9-33.3 33.3V256H205.8c-16.9 0-30.6 13.7-30.6 30.6v574.9h-43.8c-18.5 0-33.5 15-33.5 33.5s15 33.5 33.5 33.5h763c18.5 0 33.5-15 33.5-33.5 0.1-18.6-14.9-33.6-33.4-33.6zM610 358.6l122.6 472h-74.7l-120.5-472H610z m-10.7 502.8h-73v-286l73 286z m-208.7-650H454v611.3h-63.4V211.4z m-149 110.9h75v506.2h-75V322.3z" p-id="6323"></path><path d="M749.4 272.7h-48.9c-3.8 0-6.9 3.1-6.9 6.9v23.2c0 3.8 3.1 6.9 6.9 6.9h65.2v33.4h-65.2c-3.8 0-6.9 3.1-6.9 6.9v23.2c0 3.8 3.1 6.9 6.9 6.9h65.2v54.4c0 3.8 3.1 6.9 6.9 6.9h42.8c3.8 0 6.9-3.1 6.9-6.9V380h65.4c3.8 0 6.9-3.1 6.9-6.9v-23.2c0-3.8-3.1-6.9-6.9-6.9h-65.4v-33.4h65.4c3.8 0 6.9-3.1 6.9-6.9v-23.2c0-3.8-3.1-6.9-6.9-6.9h-49.4l88.9-164.3c0.4-0.9 0.8-2.1 0.8-3.2 0-3.8-3.1-6.9-6.9-6.9h-46.7c-2.6 0-5 1.5-6.1 3.8l-72.6 144.8h-2.8L720.2 102c-1.2-2.3-3.5-3.8-6.1-3.8h-47.8c-1.1 0-2.2 0.3-3.3 0.9-3.3 1.8-4.5 6-2.7 9.3l89.1 164.3z" p-id="6324"></path></svg>