<?xml version="1.0" standalone="no"?><!DOCTYPE svg PUBLIC "-//W3C//DTD SVG 1.1//EN" "http://www.w3.org/Graphics/SVG/1.1/DTD/svg11.dtd"><svg t="1708235370207" class="icon" viewBox="0 0 1024 1024" version="1.1" xmlns="http://www.w3.org/2000/svg" p-id="5234" xmlns:xlink="http://www.w3.org/1999/xlink" width="200" height="200"><path d="M541.013333 950.613333c-203.093333 0-366.933333-163.84-366.933333-366.933333C174.08 295.253333 512 59.733333 527.36 49.493333c8.533333-6.826667 20.48-6.826667 29.013333 0 13.653333 10.24 353.28 245.76 353.28 532.48-1.706667 203.093333-165.546667 368.64-368.64 368.64z m0-848.213333C477.866667 150.186667 225.28 354.986667 225.28 583.68c0 174.08 141.653333 315.733333 315.733333 315.733333s315.733333-141.653333 315.733334-315.733333C856.746667 353.28 605.866667 150.186667 541.013333 102.4z" fill="#333333" p-id="5235"></path><path d="M541.013333 779.946667c-3.413333 0-8.533333-1.706667-11.946666-3.413334-11.946667-6.826667-17.066667-22.186667-11.946667-34.133333l66.56-133.12h-129.706667c-8.533333 0-17.066667-5.12-22.186666-11.946667-5.12-6.826667-5.12-17.066667-1.706667-25.6l85.333333-170.666666c6.826667-11.946667 22.186667-17.066667 34.133334-11.946667 11.946667 6.826667 17.066667 22.186667 11.946666 34.133333L494.933333 556.373333h129.706667c8.533333 0 17.066667 5.12 22.186667 11.946667 5.12 6.826667 5.12 17.066667 1.706666 25.6l-85.333333 170.666667c-3.413333 8.533333-11.946667 15.36-22.186667 15.36z" fill="#333333" p-id="5236"></path></svg>